<?xml version="1.0" encoding="UTF-8"?>
<svg id="Livello_1" xmlns="http://www.w3.org/2000/svg" version="1.1" viewBox="0 0 40.08 40.08">
  <!-- Generator: Adobe Illustrator 29.2.0, SVG Export Plug-In . SVG Version: 2.1.0 Build 108)  -->
  <g id="_x31_4_Fast_Repair">
    <path d="M11.53,40.08c-.69,0-1.38-.15-2.03-.45-1.22-.56-2.13-1.57-2.56-2.84-.43-1.27-.33-2.63.3-3.82l8.07-15.34c-2.91-3.09-3.68-7.64-1.88-11.55C15.1,2.44,18.79.05,22.81,0c.36.02.67.17.85.46s.21.65.07.96l-2.79,6.05,1.93,3.13,3.63-.57,2.79-6.05c.14-.31.44-.53.78-.57.34-.04.68.09.9.35,2.58,3.09,3.16,7.44,1.48,11.09h0c-1.8,3.91-5.75,6.28-10,6.08l-6.41,16.1c-.5,1.25-1.46,2.21-2.71,2.71-.58.23-1.19.35-1.8.35ZM21.17,2.19c-2.58.55-4.81,2.3-5.94,4.73-1.54,3.36-.75,7.29,1.97,9.78.33.31.42.8.21,1.2l-8.41,16c-.37.7-.43,1.5-.18,2.25.25.75.79,1.34,1.51,1.67.72.33,1.52.35,2.25.06.73-.29,1.3-.86,1.59-1.59l6.69-16.79c.17-.42.6-.67,1.05-.62,3.66.44,7.17-1.51,8.71-4.86h0c1.12-2.44.99-5.27-.26-7.59l-2.27,4.93c-.14.3-.42.52-.75.57l-4.82.76c-.4.06-.8-.12-1.01-.46l-2.55-4.16c-.18-.29-.2-.64-.06-.94l2.27-4.93ZM31.54,14.42h0,0Z" fill="#fff"/>
    <circle cx="11.82" cy="34.96" r="1" fill="#fff"/>
  </g>
</svg>