<?xml version="1.0" encoding="UTF-8"?>
<svg xmlns="http://www.w3.org/2000/svg" viewBox="0 0 233.45 233.45">
  <defs>
    <style>
      .cls-1 {
        fill: #fff;
      }

      .cls-1, .cls-2 {
        fill-rule: evenodd;
      }

      .cls-2 {
        fill: #0090d3;
      }

      .cls-3 {
        fill: none;
        stroke: #000;
        stroke-miterlimit: 10;
        stroke-width: 44px;
      }
    </style>
  </defs>
  <g id="Layer_4" data-name="Layer 4">
    <circle class="cls-3" cx="116.73" cy="116.73" r="94.73"/>
  </g>
  <g id="Layer_2" data-name="Layer 2">
    <g>
      <path class="cls-1" d="M189.62,116.73c0-40.26-32.64-72.9-72.9-72.9S43.83,76.47,43.83,116.73s32.64,72.9,72.9,72.9,72.9-32.64,72.9-72.9h0Z"/>
      <path class="cls-2" d="M116.73,47.52c-37.78.98-68.22,31.43-69.2,69.2h69.2V47.52h0Z"/>
      <path class="cls-2" d="M116.73,185.93c37.78-.98,68.22-31.43,69.21-69.2h-69.21v69.2h0Z"/>
    </g>
  </g>
  <g id="Layer_1" data-name="Layer 1">
    <path class="cls-1" d="M66.25,51.17c-.45-3.12-2.32-5.73-5.2-7.04-2.89-1.31-6.24-.82-8.79.98-.21.15-.4.33-.6.48.42-1.44.55-2.89.19-4.37-.35-1.44-1.11-2.77-2.17-3.8-2.16-2.11-5.44-2.8-8.27-1.74-1.33.5-2.52,1.35-3.41,2.46-.5.63-1.01,1.26-1.52,1.9-2.64,3.3-5.29,6.6-7.93,9.9-2.27,2.83-4.54,5.67-6.81,8.5-.15.19-.3.37-.45.56-.01.01.29.24.31.26.88.71,1.76,1.41,2.64,2.12,3.33,2.66,6.66,5.33,9.99,8,3.29,2.64,6.59,5.28,9.89,7.92.84.67,1.68,1.34,2.52,2.02.03.03.23.23.27.18.17-.21.33-.42.5-.62,2.26-2.83,4.53-5.65,6.79-8.48,2.71-3.39,5.42-6.77,8.14-10.16,1.4-1.75,2.95-3.4,3.61-5.59.34-1.13.4-2.31.29-3.47h0ZM37.06,60.72c-1.37-1.1-2.74-2.2-4.11-3.29-.52-.42-1.05-.84-1.57-1.26-.01-.01.54-.69.58-.73,2.55-3.19,5.11-6.38,7.66-9.57.67-.84,1.28-1.74,2.31-2.17,1.41-.58,3.07-.21,4.1.92.83.91,1.1,2.16.83,3.34-.3,1.06-1.05,1.84-1.73,2.67-1.34,1.68-2.69,3.36-4.03,5.04-1.35,1.68-2.69,3.37-4.04,5.05h0ZM57.32,56.79c-.87,1.08-1.73,2.17-2.6,3.25-2.38,2.98-4.77,5.95-7.15,8.93-.01.01-.07.11-.09.1-.12-.1-.25-.2-.37-.29-.65-.52-1.29-1.04-1.94-1.56-1.12-.9-2.25-1.8-3.37-2.7,2.16-2.7,4.32-5.4,6.48-8.1,1.05-1.31,2.11-2.63,3.16-3.94.75-.94,1.71-1.61,2.96-1.65,1.5-.05,2.81.83,3.45,2.16.53,1.29.35,2.71-.52,3.81h0Z"/>
    <polygon class="cls-1" points="194.49 36.95 188.41 31.31 168.69 57.22 174.77 62.86 196.39 52.94 181.98 71.87 186.16 79.04 215.75 65.46 211.58 58.29 194.5 66.13 206.64 50.18 201.32 43.55 183.11 51.9 194.49 36.95 194.49 36.95"/>
    <polygon class="cls-1" points="106 17.1 113.69 38.97 119.76 38.97 127.46 17.1 128.27 38.97 136.77 40.18 135.56 7.38 124.62 6.16 116.73 29.25 108.83 6.16 97.89 7.38 96.68 40.18 105.19 38.97 106 17.1 106 17.1"/>
  </g>
</svg>