<?xml version="1.0" encoding="UTF-8"?>
<svg id="Livello_3" xmlns="http://www.w3.org/2000/svg" version="1.1" viewBox="0 0 566.93 566.93">
  <!-- Generator: Adobe Illustrator 29.2.0, SVG Export Plug-In . SVG Version: 2.1.0 Build 108)  -->
  <g>
    <path d="M35.55,433.98c0,3.19-1.06,5.84-3.17,7.96-2.26,2.19-5.16,3.28-8.71,3.28s-6.45-1.08-8.71-3.25c-2.26-2.17-3.39-4.83-3.39-7.98v-6.83h8.6v11.67c0,2.94,1.16,4.41,3.49,4.41s3.33-1.47,3.33-4.41v-8.44c0-3.55-1-6.31-3.01-8.28l-9.03-8.92c-2.26-2.22-3.39-5.48-3.39-9.79v-5.27c0-3.19,1.09-5.86,3.28-8.01,2.19-2.15,5.05-3.23,8.6-3.23s6.42,1.08,8.6,3.23c2.19,2.15,3.28,4.82,3.28,8.01v6.83h-8.55v-11.67c0-2.94-1.11-4.41-3.33-4.41s-3.28,1.47-3.28,4.41v7.58c0,3.55.99,6.29,2.96,8.23l9.03,8.92c2.26,2.26,3.39,5.54,3.39,9.84v6.13Z"/>
    <path d="M56.68,444.68h-2.74c-3.58,0-6.55-1.09-8.9-3.28-2.35-2.19-3.52-4.84-3.52-7.96v-44.03h-2.8v-1.99h2.8v-15.97l8.55-3.87v19.84h6.18v1.99h-6.18v48.87c0,2.94,1.29,4.41,3.87,4.41h2.74v1.99Z"/>
    <path d="M85.45,449.41c0,3.15-1.11,5.81-3.33,7.98-2.22,2.17-5.11,3.25-8.66,3.25-3.33,0-6.23-1.1-8.68-3.31s-3.68-4.85-3.68-7.93v-1.99h8.6v6.83c0,2.94,1.25,4.41,3.76,4.41,2.26,0,3.39-1.47,3.39-4.41v-12.21c-1.61,1.4-3.73,2.1-6.34,2.1-6.27,0-9.41-3.39-9.41-10.16v-44.57h-2.74v-1.99h11.34v50.32c0,2.8,1.08,4.19,3.23,4.19,1.36,0,2.67-.63,3.92-1.88v-50.64h-2.74v-1.99h11.34v61.99Z"/>
    <path d="M104.21,444.68h-14.09v-1.99h2.74v-73.12h-2.74v-1.99h11.29v75.11h2.8v1.99Z"/>
    <path d="M133.03,433.98c0,3.15-1.17,5.82-3.52,7.98-2.35,2.17-5.31,3.25-8.9,3.25s-6.56-1.08-8.92-3.25c-2.37-2.17-3.55-4.83-3.55-7.98v-35.86c0-3.15,1.18-5.82,3.55-7.98,2.37-2.17,5.34-3.25,8.92-3.25s6.55,1.08,8.9,3.25c2.35,2.17,3.52,4.83,3.52,7.98v18.82h-16.29v21.88c0,2.94,1.29,4.41,3.87,4.41s3.82-1.47,3.82-4.41v-11.67h8.6v6.83ZM124.43,414.95v-21.67c0-2.94-1.27-4.41-3.82-4.41s-3.87,1.47-3.87,4.41v21.67h7.69Z"/>
  </g>
  <g>
    <path d="M82.57,161.88h-7.03v192.5h-18.05L23.32,200.6v148.68h7.03v5.1H9.26v-5.1h7.03v-187.4h-7.03v-5.1h28.52l30.73,137.25v-132.15h-7.03v-5.1h21.08v5.1ZM69.62,349.28L28.14,161.88h-6.2l41.48,187.4h6.2Z"/>
    <path d="M128.32,354.38h-36.65v-5.1h7.03v-187.4h-7.03v-5.1h36.65v5.1h-7.03v187.4h7.03v5.1ZM109.99,349.28v-187.4h-5.65v187.4h5.65Z"/>
    <path d="M209.35,161.88h-7.03l-19.84,192.5h-22.46l-18.46-192.5h-7.03v-5.1h36.65v5.1h-7.03l14.74,169.08,16.4-169.08h-7.17v-5.1h21.22v5.1ZM171.18,349.28l-18.33-187.4h-5.65l18.47,187.4h5.51Z"/>
    <path d="M477.19,354.38h-69.04v-5.1h7.03v-187.4h-7.03v-5.1h36.65v5.1h-7.03v187.4h16.95v-54.15h22.46v59.25ZM426.48,349.28v-187.4h-5.65v187.4h5.65ZM466.03,349.28v-49.06h-5.65v49.06h5.65Z"/>
    <path d="M557.66,354.38h-36.65v-5.1h7.03l-5.1-57.32h-20.26l-5.65,57.32h7.03v5.1h-21.22v-5.1h7.03l19.84-192.5h22.6l18.33,192.5h7.03v5.1ZM522.66,287l-9.37-106.79-10.33,106.79h19.7ZM539.34,349.28l-17.78-187.4h-5.65l17.78,187.4h5.65Z"/>
  </g>
  <g>
    <path d="M402.06,244.54c-.08-.71-.17-1.42-.26-2.13-1.09-8.1-3.16-15.9-6.07-23.26-.26-.66-.53-1.32-.8-1.97h0c-3.14-7.46-7.16-14.46-11.93-20.86-.43-.58-.86-1.16-1.31-1.72-4.92-6.32-10.58-12.04-16.86-17-.57-.46-1.15-.9-1.73-1.35h0c-6.32-4.79-13.23-8.85-20.6-12.04-.68-.3-1.37-.59-2.06-.86-7.27-2.96-14.96-5.08-22.96-6.25-.75-.12-1.51-.22-2.27-.31-4.06-.51-8.19-.76-12.38-.76-3.73,0-7.42.21-11.04.61-.79.08-1.58.18-2.36.29-7.89,1.06-15.49,3.03-22.68,5.82-.76.3-1.52.6-2.27.92-7.1,2.95-13.79,6.71-19.95,11.14h0c-.7.51-1.4,1.02-2.09,1.55-5.86,4.45-11.21,9.54-15.95,15.15-.66.78-1.3,1.56-1.93,2.36-4.31,5.43-8.07,11.32-11.19,17.59-.55,1.11-1.09,2.22-1.59,3.35-2.93,6.47-5.18,13.3-6.67,20.41-.3,1.41-.57,2.84-.81,4.28-.88,5.34-1.34,10.82-1.34,16.42s.43,10.72,1.26,15.9c.19,1.19.4,2.37.63,3.54,1.4,7.07,3.54,13.88,6.34,20.32.49,1.14,1.01,2.27,1.54,3.38,3.03,6.31,6.7,12.25,10.92,17.74.62.8,1.25,1.59,1.89,2.37,4.66,5.69,9.94,10.86,15.73,15.4.68.53,1.36,1.06,2.06,1.57,6.09,4.53,12.71,8.37,19.75,11.43.74.33,1.49.64,2.24.95h0c7.15,2.9,14.72,5,22.59,6.17.79.12,1.59.23,2.39.33,4.11.52,8.29.78,12.54.78,3.67,0,7.3-.2,10.87-.59.77-.08,1.53-.17,2.29-.27,8.02-1.06,15.75-3.06,23.05-5.91.7-.27,1.4-.55,2.09-.83,7.42-3.08,14.39-7.03,20.77-11.72.6-.44,1.19-.88,1.77-1.33,6.35-4.88,12.09-10.5,17.1-16.74.46-.57.91-1.14,1.35-1.72,4.85-6.32,8.97-13.25,12.21-20.64.29-.66.57-1.32.85-1.99,3.02-7.31,5.2-15.06,6.41-23.12.11-.72.21-1.44.3-2.17.54-4.2.82-8.48.82-12.83,0-3.84-.22-7.63-.64-11.36ZM302.82,303.45c-26.26,0-47.54-21.29-47.54-47.54s21.29-47.55,47.54-47.55,47.55,21.29,47.55,47.55-21.29,47.54-47.55,47.54Z"/>
    <path d="M384.49,254.89h-8.25s-.04.01-.06.02h0c-.07-4.9-.61-9.68-1.59-14.31h0c.25-.09.47-.27.59-.54,1.42-3.18,4.32-4.51,6.4-4.38.55.03,1.03-.39,1.06-.95.03-.55-.39-1.03-.95-1.06-2.95-.17-5.96,1.58-7.7,4.35-1.42-5.67-3.5-11.08-6.16-16.14h0s0,0,0,0c.88-2.96,3.2-5.31,5.89-5.99.54-.13.87-.68.73-1.22-.14-.54-.68-.87-1.22-.73-2.82.71-5.29,2.85-6.66,5.65,0,0,0,0,0,0-2.91-5.08-6.4-9.78-10.38-14.01,0,0,0,0,0,0,.59-2.85,2.36-5.36,4.82-6.76.48-.28.65-.89.38-1.37-.27-.48-.89-.65-1.37-.38-2.58,1.47-4.53,3.95-5.46,6.83-4.12-4.1-8.73-7.72-13.73-10.75.14-2.78,1.39-5.49,3.48-7.5.4-.38.41-1.02.03-1.42-.38-.4-1.02-.41-1.42-.03-2.21,2.11-3.62,4.9-4.01,7.82-4.98-2.82-10.33-5.08-15.95-6.68,0,0,0,0,0,0,0-.01,0-.02,0-.03-.47-2.67.18-5.51,1.83-8.01.3-.46.18-1.09-.29-1.39-.46-.31-1.09-.18-1.39.29-1.75,2.66-2.52,5.68-2.23,8.6,0,0,0,0-.01,0-5.46-1.38-11.16-2.15-17.02-2.23h0c0-.13-.02-.27-.08-.39-1-2.42-1-5.08,0-7.49.21-.51-.03-1.1-.54-1.31-.51-.21-1.1.03-1.31.54-1.16,2.79-1.19,5.85-.13,8.66,0,0,0,0-.01,0-5.88.08-11.6.86-17.07,2.25-1.64-2.46-2.31-5.37-1.82-8,.1-.55-.26-1.07-.81-1.17-.55-.1-1.07.26-1.17.81-.55,2.98.08,6.11,1.77,8.91-5.56,1.58-10.85,3.81-15.78,6.59,0,0,0,0,0,0,0,0-.01-.02-.02-.03-2.23-2.08-3.51-4.95-3.5-7.87,0-.56-.45-1.01-1-1.01h0c-.55,0-1,.45-1.01,1-.01,3.29,1.34,6.52,3.73,8.95,0,0,0,0,0,0-4.91,2.95-9.44,6.46-13.52,10.44,0,0,0,0,0,0-.03-.02-.06-.04-.09-.06-2.63-1.44-4.46-4.11-4.89-7.15-.08-.55-.59-.93-1.14-.85-.55.08-.93.59-.86,1.14.5,3.51,2.55,6.61,5.51,8.39,0,0,0,0,0,0-3.96,4.09-7.45,8.64-10.37,13.55-.06-.02-.11-.05-.18-.06-2.75-.63-5.05-2.96-5.87-5.92-.15-.54-.7-.85-1.24-.7-.54.15-.85.7-.7,1.24.97,3.52,3.68,6.31,6.95,7.23h0c-2.75,4.93-4.94,10.21-6.5,15.76,0,0,0,0,0,0-.08-.02-.17-.03-.26-.02-2.61.19-5.23-1.6-6.38-4.31-.22-.51-.81-.75-1.32-.54-.51.22-.75.81-.53,1.32,1.41,3.33,4.6,5.55,7.88,5.55.03,0,.05,0,.08,0,0,0,0,0,0,0-1.36,5.41-2.11,11.07-2.19,16.88h0s-8.22.01-8.22.01c-.56,0-1.01.45-1,1.01,0,.55.45,1,1.01,1h8.22c.08,5.8.83,11.46,2.19,16.87,0,0,0,0,0,0-3.26-.03-6.52,2.22-8.02,5.57-.23.51,0,1.1.51,1.33.13.06.27.09.41.09.38,0,.75-.22.92-.6,1.42-3.18,4.31-4.5,6.4-4.38.11,0,.21-.01.31-.04,0,0,0,0,0,0,1.56,5.55,3.75,10.84,6.5,15.77,0,0,0,0,0,0-3.22.95-5.95,3.76-6.99,7.26-.16.53.14,1.09.68,1.25.1.03.19.04.29.04.43,0,.83-.28.96-.72.88-2.96,3.2-5.31,5.89-5.99.07-.02.14-.04.2-.07,0,0,0,0,0,0,2.92,4.92,6.41,9.48,10.37,13.57-2.92,1.81-4.98,4.93-5.54,8.42-.09.55.29,1.06.83,1.15.05,0,.11.01.16.01.49,0,.91-.35.99-.85.49-3.04,2.32-5.73,4.91-7.2.03-.02.06-.04.09-.07,0,0,0,0,0,0,4.08,3.99,8.62,7.51,13.53,10.46,0,0,0,0,0,0-2.35,2.44-3.71,5.67-3.74,8.95,0,.56.44,1.01.99,1.02h.01c.55,0,1-.44,1.01-.99.03-2.92,1.31-5.8,3.51-7.91,0,0,.01-.01.02-.02,4.94,2.78,10.24,5.02,15.8,6.61,0,0,0,0,.01,0-1.66,2.79-2.31,5.92-1.79,8.9.09.49.51.83.99.83.06,0,.12,0,.17-.02.55-.1.91-.62.82-1.16-.47-2.66.18-5.51,1.82-8.01,5.47,1.39,11.2,2.17,17.09,2.25,0,0,0,0,.01,0-1.06,2.81-1.02,5.87.13,8.66.16.39.53.62.93.62.13,0,.26-.03.38-.08.51-.21.76-.8.54-1.31-1-2.42-1-5.08,0-7.49.05-.13.08-.26.08-.39h0c5.87-.08,11.58-.85,17.04-2.23,0,0,0,0,0,0-.31,2.91.47,5.93,2.25,8.6.19.29.51.45.84.45.19,0,.39-.05.56-.17.46-.31.59-.93.28-1.39-1.67-2.5-2.31-5.34-1.82-8,0-.02,0-.03,0-.05,0,0,0,0,0,0,5.62-1.6,10.97-3.86,15.95-6.68,0,0,0,0,0,0,.36,2.94,1.79,5.73,4.04,7.83.19.18.44.27.69.27.27,0,.54-.11.74-.32.38-.41.36-1.04-.05-1.42-2.14-1.99-3.38-4.7-3.48-7.49,4.99-3.04,9.6-6.65,13.71-10.75,0,0,0,0,0,0,.89,2.9,2.86,5.38,5.51,6.83.15.08.32.12.48.12.36,0,.7-.19.88-.52.27-.49.09-1.1-.4-1.36-2.52-1.38-4.3-3.89-4.82-6.77,3.98-4.22,7.46-8.92,10.36-14,0,0,0,0,0,0,1.33,2.84,3.82,4.98,6.73,5.65.08.02.15.03.23.03.46,0,.87-.31.98-.78.12-.54-.21-1.08-.75-1.21-2.75-.63-5.05-2.96-5.87-5.92-.01-.04-.03-.07-.04-.1,0,0,0,0,0,0,2.65-5.05,4.72-10.46,6.14-16.12,1.6,2.67,4.4,4.38,7.28,4.38.16,0,.33,0,.49-.02.55-.04.97-.52.93-1.07-.04-.55-.51-.97-1.07-.93-2.61.17-5.23-1.6-6.38-4.31-.13-.3-.38-.5-.67-.58,0,0,0,0,0,0,.98-4.62,1.53-9.4,1.59-14.3h0s.04,0,.06,0h8.25c.56-.01,1.01-.46,1-1.02,0-.55-.45-1-1.01-1ZM302.82,303.45c-26.26,0-47.54-21.29-47.54-47.54s21.29-47.55,47.54-47.55,47.55,21.29,47.55,47.55-21.29,47.54-47.55,47.54ZM292.42,167.95c-.19.15-.41.23-.64.23-.29,0-.58-.13-.77-.37-2.64-3.22-3.23-7.47-1.59-10.9.78-.11,1.57-.21,2.36-.29-.01.15-.06.29-.15.43-1.78,2.82-1.41,6.63.93,9.48.35.43.29,1.07-.14,1.42ZM315.88,354.79c-2.33-2.85-2.71-6.66-.93-9.48.3-.47.16-1.09-.32-1.39-.47-.3-1.09-.16-1.38.31-2.07,3.27-1.87,7.55.42,10.96.77-.08,1.53-.17,2.29-.27-.02-.05-.05-.09-.09-.13ZM269.72,172.25c-2.9-2.27-4.07-6.09-2.99-9.51-.76.3-1.52.6-2.27.92-.61,3.78.88,7.72,4.02,10.18.18.14.4.21.62.21.3,0,.59-.13.79-.38.34-.44.27-1.07-.17-1.41ZM340.97,348.05c-3.09-2.41-4.22-6.6-2.75-10.18.21-.51-.04-1.1-.55-1.31-.51-.21-1.1.04-1.31.55-1.69,4.12-.59,8.89,2.65,11.91.7-.27,1.4-.55,2.09-.83-.04-.05-.09-.09-.14-.13ZM249.13,183.63c-2.81-1.27-5.18-4.7-4.62-8.83-.7.5-1.4,1.02-2.09,1.54.12,4.28,2.8,7.73,5.87,9.12.14.06.28.09.41.09.38,0,.75-.22.92-.59.23-.51,0-1.1-.5-1.33ZM363.46,335c-3.08-1.39-5.66-5.4-4.35-10.1.15-.53-.17-1.09-.7-1.24-.53-.15-1.09.17-1.24.7-1.5,5.39,1.22,10.08,4.72,12.09.6-.44,1.19-.88,1.77-1.33-.06-.05-.13-.09-.2-.12ZM232.17,199.92c-1.56-.25-3.14-1.3-4.22-2.83-1.14-1.6-1.65-3.56-1.48-5.6-.66.78-1.3,1.56-1.93,2.36.24,1.59.83,3.09,1.77,4.4,1.4,1.96,3.47,3.32,5.55,3.66.05,0,.11.01.16.01.49,0,.92-.35,1-.85.09-.55-.29-1.06-.83-1.15ZM381.78,316.55c-1.55-.25-3.13-1.31-4.22-2.84-1.3-1.82-1.78-4.1-1.37-6.44.1-.55-.27-1.07-.81-1.17-.55-.09-1.07.27-1.17.81-.51,2.87.1,5.7,1.71,7.95,1.23,1.73,3,3,4.83,3.5.46-.57.91-1.14,1.35-1.72-.1-.05-.21-.09-.32-.11ZM221.14,220.9c-.08-.55-.58-.94-1.14-.85-1.33.19-2.92-.42-4.15-1.58-1.61-1.53-2.42-3.8-2.21-6.22.03-.31-.09-.6-.29-.8-.55,1.11-1.09,2.22-1.59,3.35.35,1.98,1.28,3.77,2.71,5.12,1.46,1.39,3.3,2.17,5.03,2.17.26,0,.52-.02.78-.06.55-.08.93-.59.85-1.14ZM394.7,293.97c-1.33.19-2.92-.42-4.15-1.58-1.61-1.53-2.42-3.8-2.21-6.21.05-.55-.36-1.04-.91-1.09-.55-.06-1.05.36-1.09.92-.27,3.03.76,5.9,2.83,7.85,1.47,1.39,3.3,2.17,5.03,2.17.04,0,.08,0,.12,0,.29-.66.57-1.32.85-1.99-.15-.06-.3-.07-.47-.05ZM213.59,242.37c-.25-.49-.85-.7-1.35-.45-1.07.53-2.51.37-3.79-.42-1.78-1.1-2.81-3.07-2.82-5.41,0-.39-.22-.72-.54-.88-.3,1.41-.57,2.84-.81,4.28.63,1.55,1.7,2.86,3.12,3.73,1.11.68,2.3,1.03,3.44,1.03.8,0,1.59-.18,2.29-.52.5-.25.7-.85.45-1.35ZM401.34,268.83c-1.07.53-2.51.37-3.79-.42-1.78-1.1-2.82-3.08-2.83-5.41,0-.28-.11-.53-.29-.71-.18-.18-.43-.29-.71-.29-.56,0-1.01.46-1.01,1.01.02,3,1.43,5.66,3.78,7.11,1.11.68,2.3,1.03,3.44,1.03.56,0,1.12-.09,1.64-.26.11-.72.21-1.44.3-2.17-.18-.02-.37.02-.54.1ZM213.33,266.76c-1.63-.83-3.72-.67-5.58.43-1.7,1.01-2.95,2.64-3.54,4.61.19,1.19.4,2.37.63,3.54.53-.02.95-.44.97-.97.1-3.39,2.11-4.94,2.98-5.45,1.25-.74,2.64-.88,3.64-.37.49.25,1.1.06,1.35-.44.25-.5.06-1.1-.44-1.35ZM402.24,246.22c-.16.03-.31.11-.44.23-.83.75-2.22.96-3.61.56-.96-.28-3.31-1.27-4.26-4.52-.16-.52-.7-.83-1.22-.69h-.03c-.54.16-.84.72-.68,1.25.85,2.92,2.97,5.12,5.64,5.88,1.76.5,3.48.31,4.8-.49l-.19-2.24ZM219.69,288.48c-1.89-.27-4.02.5-5.71,2.05-1.45,1.35-2.42,3.14-2.81,5.14.49,1.14,1.01,2.27,1.54,3.38.2-.2.31-.47.29-.77-.22-3.37,1.37-5.37,2.34-6.27,1.22-1.13,2.78-1.72,4.05-1.54.55.08,1.06-.31,1.14-.85.08-.55-.31-1.06-.85-1.14ZM394.92,217.18h0c-1.74-.07-3.62.69-5.13,2.1-2.1,1.94-3.18,4.81-2.99,7.87.04.53.48.95,1,.95.03,0,.05,0,.07,0,.56-.04.98-.51.94-1.07-.22-3.37,1.38-5.37,2.34-6.27,1.23-1.13,2.78-1.71,4.06-1.54.18.03.36,0,.51-.06-.26-.66-.53-1.32-.8-1.97ZM232.11,309.62c-.09-.55-.61-.92-1.15-.83-3.41.55-6.61,3.7-7.33,8,.62.8,1.25,1.59,1.89,2.37-.29-4.76,3.09-7.95,5.76-8.39.55-.09.92-.6.83-1.15ZM381.68,194.6c-4.04,1.05-7.57,5.69-6.68,11.45.08.5.5.85.99.85.05,0,.11,0,.16-.02.55-.08.93-.6.84-1.15-.81-5.26,2.83-8.84,5.66-9.3.13-.02.24-.06.34-.12-.43-.58-.86-1.16-1.31-1.72ZM248.49,326c-.23-.51-.82-.73-1.33-.5-3.03,1.38-5.7,4.8-5.92,9.06.68.53,1.36,1.06,2.06,1.57-.46-4.13,1.93-7.54,4.69-8.79.51-.23.73-.83.5-1.33ZM363.09,176.25h0c-3.48,1.99-6.25,6.69-4.86,12.12.12.45.52.75.97.75.09,0,.17-.01.25-.03.54-.14.86-.69.72-1.23-1.21-4.73,1.39-8.75,4.45-10.14.08-.04.14-.08.2-.13-.57-.46-1.15-.9-1.73-1.35ZM268.6,337.63c-.34-.44-.98-.52-1.41-.18-3.11,2.41-4.63,6.32-4.13,10.1.74.33,1.49.64,2.24.95-.97-3.43.25-7.22,3.12-9.45.44-.34.52-.98.18-1.41ZM340.43,163.35c-3.27,3-4.43,7.8-2.81,11.97.16.4.54.64.94.64.12,0,.24-.02.36-.07.52-.2.77-.78.57-1.3-1.42-3.63-.24-7.83,2.85-10.24.05-.04.1-.09.14-.13-.68-.3-1.37-.59-2.06-.86ZM291.06,343.7c-.43-.36-1.06-.3-1.42.13-2.65,3.17-3.3,7.4-1.75,10.85.79.12,1.59.23,2.39.33-.02-.12-.07-.23-.13-.34-1.75-2.88-1.33-6.71,1.04-9.55.36-.42.3-1.06-.13-1.41ZM317.47,157.09c-.75-.12-1.51-.22-2.27-.31-2.35,3.39-2.6,7.71-.57,11.05.19.31.52.48.85.48.18,0,.36-.05.52-.15.48-.29.63-.9.34-1.38-1.75-2.87-1.34-6.71,1.04-9.55.04-.05.07-.09.1-.14Z" fill="#535454"/>
    <path d="M302.82,202.32c-29.59,0-53.58,23.99-53.58,53.58s23.99,53.58,53.58,53.58,53.58-23.99,53.58-53.58-23.99-53.58-53.58-53.58ZM302.82,303.45c-26.26,0-47.54-21.29-47.54-47.54s21.29-47.55,47.54-47.55,47.55,21.29,47.55,47.55-21.29,47.54-47.55,47.54Z"/>
    <path d="M302.82,327.68c-39.58,0-71.78-32.2-71.78-71.78s32.2-71.78,71.78-71.78,71.78,32.2,71.78,71.78-32.2,71.78-71.78,71.78ZM302.82,185.28c-38.94,0-70.62,31.68-70.62,70.62s31.68,70.62,70.62,70.62,70.62-31.68,70.62-70.62-31.68-70.62-70.62-70.62Z" fill="#848484"/>
  </g>
</svg>