<?xml version="1.0" encoding="UTF-8"?>
<svg id="Livello_3" xmlns="http://www.w3.org/2000/svg" version="1.1" viewBox="0 0 566.93 566.93">
  <!-- Generator: Adobe Illustrator 29.2.0, SVG Export Plug-In . SVG Version: 2.1.0 Build 108)  -->
  <g>
    <rect x="26.77" y="268.88" width="42.6" height="42.6" fill="#ffda00"/>
    <rect x="69.38" y="311.48" width="42.6" height="42.6" fill="#ffda00"/>
    <rect x="111.98" y="268.88" width="42.6" height="42.6" fill="#ffda00"/>
    <rect x="154.59" y="311.48" width="42.6" height="42.6" fill="#ffda00"/>
    <rect x="111.98" y="353.56" width="42.6" height="42.6" fill="#ffda00"/>
    <rect x="197.19" y="353.56" width="42.6" height="42.6" fill="#ffda00"/>
    <rect x="282.4" y="353.56" width="42.6" height="42.6" fill="#ffda00"/>
    <rect x="197.19" y="268.88" width="42.6" height="42.6" fill="#ffda00"/>
    <rect x="239.79" y="311.48" width="42.6" height="42.6" fill="#ffda00"/>
  </g>
  <g>
    <path d="M126.12,269.85v45.82h-22.92v-45.82c0-8.35-6.84-15.14-15.25-15.14h-27.28c2.04,4.64,3.18,9.76,3.18,15.14v45.82h-22.92v-45.82c0-8.35-6.84-15.14-15.25-15.14v-22.76c15.6,0,29.04,9.34,34.96,22.68v-22.68h27.31c21.05,0,38.17,17,38.17,37.9Z" fill="#202e66"/>
    <path d="M142.4,315.67v-83.71h22.92v83.71h-22.92Z" fill="#202e66"/>
    <path d="M208.24,315.67l-32.35-83.71h24.54l22.75,58.86,22.75-58.86h24.54l-32.35,83.71h-29.86Z" fill="#202e66"/>
    <path d="M362.15,273.79c0,11.27-3.94,21.94-11.11,30.04-3.62,4.09-7.87,7.33-12.64,9.61-5.07,2.43-10.47,3.66-16.05,3.66h-8.61c-5.58,0-10.98-1.23-16.05-3.66-4.77-2.28-9.02-5.51-12.64-9.61-7.16-8.1-11.11-18.77-11.11-30.04s3.94-21.94,11.11-30.04c3.62-4.09,7.87-7.33,12.64-9.61,5.07-2.43,10.47-3.66,16.05-3.66h8.61c5.58,0,10.98,1.23,16.05,3.66,4.77,2.28,9.02,5.51,12.64,9.61,7.16,8.1,11.11,18.77,11.11,30.04ZM339.23,273.79c0-5.85-1.95-11.27-5.49-15.28-3.03-3.42-6.89-5.37-10.92-5.5h-9.08c-4.19,0-8.23,1.95-11.37,5.5-3.54,4-5.49,9.43-5.49,15.28s1.95,11.27,5.49,15.28c3.14,3.55,7.18,5.51,11.38,5.51h8.61c4.2,0,8.24-1.96,11.38-5.51,3.54-4.01,5.49-9.43,5.49-15.28Z" fill="#202e66"/>
    <path d="M436.56,292.75v22.92h-60.24v-83.71h22.92v60.79h37.31Z" fill="#202e66"/>
    <path d="M521.73,246.17c9.28,9.18,14.4,21.38,14.4,34.36v35.13h-22.92v-25.31h-39.51v25.32h-22.92v-46.03c0-8.26-6.84-14.98-15.25-14.98v-22.66c20.78,0,37.74,16.46,38.16,36.85h36.71c-4.33-8.45-13.2-14.26-23.42-14.26h-16.24v-22.66h16.24c13.13,0,25.48,5.05,34.76,14.23h0Z" fill="#202e66"/>
  </g>
  <g>
    <g>
      <path d="M388.83,348.73c-1.28-2.43-3.39-4.03-6.46-4.03s-6.21,1.28-6.21,4.48c0,2.82,1.98,3.84,5.89,4.74l4.29,1.02c4.16.96,7.29,3.97,7.29,8.19,0,6.53-5.82,9.21-11.65,9.21-4.54,0-8.7-1.6-11.52-5.82l3.65-2.5c1.73,2.69,4.35,4.48,7.87,4.48s7.04-1.54,7.04-4.99c0-3.01-2.56-4.03-5.7-4.8l-4.1-.96c-2.05-.51-7.68-2.18-7.68-7.87,0-6.21,5.44-9.02,11.07-9.02,4.16,0,8.06,1.47,9.98,5.38l-3.78,2.5Z" fill="#202e66"/>
      <path d="M415.71,345.47h-8.64v17.66c0,4.48,1.73,5.38,4.35,5.38,1.47,0,3.07-.45,4.35-1.15l.19,3.9c-1.54.7-3.58,1.09-5.7,1.09-3.2,0-7.42-1.41-7.42-8v-18.88h-6.34v-3.84h6.34v-8.45h4.22v8.45h8.64v3.84Z" fill="#202e66"/>
      <path d="M432.6,366.4l9.15-24.76h5.12l-14.97,37.76c-1.79,4.61-4.22,7.55-9.41,7.55-1.28,0-2.62-.06-3.9-.45l.45-4.1c.96.51,2.05.7,3.2.7,2.94,0,4.48-1.98,5.76-5.38l2.18-5.76-12.29-30.33h5.31l9.41,24.76Z" fill="#202e66"/>
      <path d="M457.49,371.58h-4.22v-48.38h4.22v48.38Z" fill="#202e66"/>
      <path d="M470.61,357.76c.51,6.02,5.06,10.75,11.01,10.75,4.48,0,7.94-2.5,9.6-5.18l3.26,2.69c-3.52,4.48-7.94,6.34-12.86,6.34-8.89,0-15.49-6.72-15.49-15.74s6.59-15.74,15.1-15.74c9.09.06,14.33,6.78,14.33,14.97v1.92h-24.96ZM490.96,354.3c0-5.7-3.65-9.6-9.73-9.6-5.5,0-10.49,4.67-10.49,9.6h20.22Z" fill="#202e66"/>
    </g>
    <rect x="333.08" y="352.28" width="27.63" height="3.46" fill="#202e66"/>
    <rect x="508.5" y="352.28" width="27.63" height="3.46" fill="#202e66"/>
  </g>
</svg>