<?xml version="1.0" encoding="UTF-8"?>
<svg id="Livello_1" xmlns="http://www.w3.org/2000/svg" version="1.1" viewBox="0 0 1840.9 500">
  <!-- Generator: Adobe Illustrator 29.3.1, SVG Export Plug-In . SVG Version: 2.1.0 Build 151)  -->
  <defs>
    <style>
      .st0 {
        fill: #fff;
        fill-rule: evenodd;
      }

      .st1 {
        fill: #ed252f;
      }
    </style>
  </defs>
  <rect class="st1" width="1840.9" height="500"/>
  <g id="Page-1">
    <g id="logo_motul_cmyk">
      <path id="Fill-2" class="st0" d="M517.3,84.1v330h-116.8l6.5-144-63.5,144h-77.9l-22.2-146.1-37.7,145.8h-119.9L183.7,84.1h127s19.8,134,19.8,134l56.7-134h130.1"/>
      <path id="Fill-3" class="st0" d="M1171.3,188.7l-52.4-2.1-26.9,227.2h-127.1l28.9-226.8-48.3,1.7-81.1-104.8h317.9l-11,104.8"/>
      <path id="Fill-4" class="st0" d="M1333.5,83.9l-23.6,204.9c-.8,12.4,5,24.7,16.1,30,11.5,4.2,25.8,2.5,34.8-6,8-6.7,10.8-15.9,13-25.5l28.3-203.5h121.4s-26.2,225.7-26.2,225.7c-5.7,32.2-20.8,62.6-49.9,83.1-41.9,30-98,34.6-152.2,27.2-43.1-7.8-92.2-35.4-106.2-78.5-6-15.5-5-34.2-5-51.2l25.1-206.3h124.5"/>
      <path id="Fill-5" class="st0" d="M1655.4,309.5h99.8l-29.4,104.3h-212.5l44.2-329.9h126.3s-28.3,225.6-28.3,225.6"/>
      <path id="Fill-6" class="st0" d="M823.6,96.2l12.6,9.6,74.3,94c8.3,15.9,8.6,36.1,7.9,55.2-1.1,63.2-43,122.2-101.6,148.8-71.4,33.3-166.9,17.7-222.8-36.7-49.5-46.3-59.6-124.5-33.7-184.5,30.1-66.8,101.2-108.6,174.4-105.3,31.6.7,62.1,6,89,19.1ZM746.8,186.7c-26.9-3.6-52.4,8.8-66,32.5-11.5,19.8-14.4,47.4-2.2,67.5,8.6,16.9,26.6,28.6,45.6,30.4,24.7,2.1,46.7-9.9,59.6-30.4,13.3-19.1,14-50.2,3.2-70.7-7.2-15.6-24-26.5-40.2-29.3Z"/>
    </g>
  </g>
</svg>