<?xml version="1.0" encoding="UTF-8"?>
<svg id="Livello_1" xmlns="http://www.w3.org/2000/svg" version="1.1" viewBox="0 0 1782 500">
  <!-- Generator: Adobe Illustrator 29.3.1, SVG Export Plug-In . SVG Version: 2.1.0 Build 151)  -->
  <defs>
    <style>
      .st0 {
        fill: #c4242a;
      }
    </style>
  </defs>
  <path class="st0" d="M32.5,295.6s24.3,30.6,35,30.6,93.3-71.2,93.3-71.2c0,0-53.5-61.6-82.6-98.8-29.2-37.3-7-60.8-1.5-71.2,5.9-10.3,23.3-35,73.4-35h254.1s-51.3,43.2-70.1,58.2c-20.7,16.9-23.3,23.6-58.2,24.3-44.6.7-90.7-10.3-68.9,17.7,22.8,29.5,102.9,127.6,118,143.8,15.1,16.2,22.8,29.9,28.8-12.2,5.9-42.8,6.2-64.9,26.9-84.8,28.4-27.6,81.5-66,81.5-66,0,0-34.3,201.3-41.6,236.7-8.8,44.2-25.8,80.8-70.4,80.4-40.9-.4-43.5-19.2-128.3-119.5,0,0-86.3,72.3-114.3,92.2-28,19.9-46.1,36.5-74.5,25.8-26.2-10.9-22.8-25.3-.4-151h0Z"/>
  <path d="M572,130c-19.2,0-38.3,5.5-43.5,36.9-5.2,31.4-48,271.8-48,271.8h41.3l19.5-113.3,42.8-10-20.7,123.1h40.9l55.3-309.1c-.3.5-68.9.5-87.7.5h0ZM591.6,276.8l-43.5,10.3s17.7-95.5,20.3-107.3c2.2-11.8,2.6-13.6,11.4-13.6h31.8l-19.9,110.7ZM676.4,439h-40.9l54.6-309h40.9l-24.3,144.2,65.6-144.2h41.6l-76.7,166.7,21.4,142.3h-40.6l-20.3-124.3-21.4,124.2ZM919.8,130h-89.6l-54.9,309.1h44.2l21.4-116.9,10-2.2,7.4,119.1h41.3l-7-132.1c30.2-4.5,37.3-42.4,40.2-56.4,2.6-14,13.3-77.8,16.2-93.3,2.9-15.6-11.8-27.3-29.2-27.3h0ZM901.4,175c-.4,5.5-13.3,82.6-15.1,88.9-1.9,6.2-4.1,9.2-10,11.4-6.2,1.9-28.8,9.2-28.8,9.2l21.8-117.3h26.2c6.2,0,6.2,2.3,5.9,7.8ZM1223.6,130h-88.5l-55.3,309.1h45l20.7-116.9s36.9-10.7,57.2-17.3c20.3-6.6,30.2-33.5,33.2-46.1,2.6-12.9,13.3-72.7,16.2-96.7,3.3-24.7-9.2-32.1-28.4-32.1h0ZM1206,176.5c-.7,5.9-13.6,81.1-14.7,86.7-1.1,5.5-4.8,10.7-8.8,12.9-4.5,1.9-29.5,8.5-29.5,8.5l20.7-115.8h25.8c6.2-.4,7.3,2.2,6.6,7.7ZM1367.1,130h-43.5c-31.4,0-43.9,19.9-48,43.9l-36.9,220.9c-4.1,24-7.4,43.9,33.2,43.9h43.5c34.3,0,43.9-19.9,48-43.9l36.9-220.9c4.1-24,6.2-43.9-33.2-43.9ZM1357.6,200.4l-28,168.2c-2.9,18.5-7.8,33.5-20.7,33.5h-15.9c-14.7,0-12.6-15.1-9.2-33.5l28-168.2c2.9-18.5,8.8-33.5,20.7-33.5h15.9c14.3,0,12.6,15.1,9.2,33.5ZM1460.5,439h-46.8l16.6-309.1h40.9l-18.5,223.1,59.7-223.1h42.4l-94.3,309.1ZM1563.7,439h-40.2l53.9-309.1h42l-55.7,309.1ZM1732.3,130h-43.5c-31.4,0-43.9,19.9-48,43.9l-36.9,220.9c-4.1,24-7.4,43.9,33.2,43.9h43.5c34.3,0,43.9-19.9,48-43.9l12.2-72.7h-38.3l-7.8,46.1c-2.9,18.5-7.8,33.5-20.7,33.5h-15.9c-14.7,0-12.6-15.1-9.2-33.5l28-168.2c2.9-18.5,8.8-33.5,20.7-33.5h15.9c14.4,0,12.6,15.1,9.2,33.5l-5.5,32.8h38.3l10-59.4c4-23.6,6.2-43.5-33.2-43.5h0ZM1759.9,113.4h-88.1s-.7-19.9,12.9-21.8c13.6-1.9,80-5.9,80-5.9l-4.8,27.7ZM1015,130c-19.2,0-38.3,5.5-43.5,36.9s-48,271.8-48,271.8h41.3l19.5-113.2,42.8-10-20.7,123.1h40.9l55.3-309.1c-.3.4-68.9.4-87.7.4h0ZM1034.5,276.8l-43.5,10.3s17.7-95.5,20.3-107.3c2.2-11.8,2.6-13.6,11.4-13.6h31.7l-19.8,110.7Z"/>
</svg>