<?xml version="1.0" encoding="UTF-8"?>
<svg id="Livello_1" xmlns="http://www.w3.org/2000/svg" version="1.1" viewBox="0 0 2191.3 500">
  <!-- Generator: Adobe Illustrator 29.3.1, SVG Export Plug-In . SVG Version: 2.1.0 Build 151)  -->
  <defs>
    <style>
      .st0 {
        fill: #515457;
      }

      .st1 {
        fill: #e5002d;
      }
    </style>
  </defs>
  <path class="st1" d="M561.8,52.1c.4-1.8-35-2.1-37.8-2.1-16.4,1.1-32.8,3.9-48.5,8.9-29.6,9.3-57.5,26.8-76.4,51.8-20,26.1-33.6,57.5-47.1,87.1-13.9,31.4-27.5,63.2-42.1,94.2-13.9,30-28.6,58.5-50.3,83.9-20,23.6-50,36.1-81,33.6-30.3-2.5-58.2-19.6-73.9-45.7-16.4-26.8-17.8-61-6.8-90.3,10.4-28.6,32.8-52.1,61-63.9,28.9-12.1,63.5-11.4,92.5,1.4,6.4,2.9,12.9,6.4,18.9,10.4,1.4,1.1,5.7,5.7,7.5,5.7s3.6-7.5,4.3-8.6c6.8-15,13.9-30,20.7-45,3.2-7.1,6.4-13.9,9.6-21.1,1.4-3.2,9.3-15,5.7-17.8-12.1-9.3-24.3-18.2-38.2-24.6-60-28.6-133.1-21.1-185.6,19.6C41.7,170.7,15.6,238.5,27.4,303.4c11.4,63.9,58.5,117.4,120.3,137.4,31.1,10,66,12.1,97.8,4.6,31.8-7.1,60-24.3,83.5-46.4,48.5-45.3,78.5-107.4,106-167.4,13.9-30.7,26.8-61.8,43.2-91.4,15.3-27.5,33.6-56.8,59.3-76,4.3-3.2,8.6-6.1,13.2-8.2,1.8,0,10.7-2.1,11.1-3.9.4-.4-.4,1.1,0,0"/>
  <path class="st0" d="M562.2,276c0-43.2,28.9-72.5,72.5-72.5s35.7,3.9,52.1,11.8c4.6,2.5,7.5,7.1,7.5,11.8,0,7.1-6.1,12.9-13.6,12.9s-3.9-.4-6.1-1.1c-12.9-6.4-26.1-10.4-40-10.4-28.6,0-45.7,17.1-45.7,45.7v55c0,28.6,17.1,45.7,45.7,45.7s28.2-3.9,40-10c1.4-.7,3.9-1.4,6.1-1.4,7.1,0,13.6,5.7,13.6,12.9s-2.9,9.6-7.5,11.8c-16.4,7.9-33.6,11.8-52.1,11.8-43.5,0-72.5-29.3-72.5-72.5v-51.4Z"/>
  <path class="st0" d="M838.8,274.2c0-28.6-17.1-45.7-45-45.7s-45.7,17.1-45.7,45.7v16.4h90.7v-16.4h0ZM748.1,315.2v11.8c0,28.6,17.1,47.5,45.7,47.5s31.1-4.6,45-11.1c2.1-.7,3.6-1.1,5.7-1.1,7.5,0,13.6,5.4,13.6,12.5s-2.9,9.6-7.5,11.8c-17.8,8.6-36.8,12.5-56.8,12.5-43.5,0-72.5-29.3-72.5-72.5v-51c0-43.2,28.9-72.5,72.5-72.5s72.1,29.3,72.1,72.5v20.7c0,10.4-8.2,18.6-18.6,18.6h-99.2v.4Z"/>
  <path class="st0" d="M901.6,137.8c0-7.5,5.7-13.6,13.6-13.6s13.6,6.1,13.6,13.6v248.4c0,7.5-6.1,13.6-13.6,13.6s-13.6-6.1-13.6-13.6v-248.4Z"/>
  <path class="st0" d="M981.2,137.8c0-7.5,6.1-13.6,13.6-13.6s13.6,6.1,13.6,13.6v248.4c0,7.5-6.1,13.6-13.6,13.6s-13.6-6.1-13.6-13.6v-248.4Z"/>
  <path class="st0" d="M1171.9,217.1c0-7.1,6.1-13.6,13.6-13.6s13.6,6.4,13.6,13.6v155.3c0,7.9-5.4,15-12.5,17.5-18.9,6.4-39.3,10-60,10-45,0-72.5-28.6-72.5-72.5v-110.3c0-7.1,6.1-13.6,13.6-13.6s13.6,6.4,13.6,13.6v112.1c0,28.6,17.1,45.7,45.7,45.7s31.1-2.5,45-6.8v-151h0Z"/>
  <path class="st0" d="M1245.7,137.8c0-7.5,6.1-13.6,13.6-13.6s13.6,6.1,13.6,13.6v248.4c0,7.5-6.1,13.6-13.6,13.6s-13.6-6.1-13.6-13.6v-248.4Z"/>
  <path class="st0" d="M1427.4,311.3h-45c-40.7,0-45.7,15.7-45.7,31.8s11.1,31.4,45.7,31.4,31.1-2.5,45.3-6.8v-56.4h-.4ZM1454.6,375.2c0,3.2-1.8,11.4-12.9,14.6-19.3,5.4-38.9,10-59.6,10s-42.8-6.1-55-17.1c-11.4-10.4-17.5-21.8-17.5-40.3s6.1-29.3,17.5-40c12.1-11.1,31.1-15.7,55-15.7h45.3v-22.5c0-23.6-17.1-35.7-42.1-35.7s-30.3,4.6-45.7,13.6c-1.8,1.1-3.9,2.1-6.4,2.1-7.1,0-13.6-4.6-13.6-12.9s2.5-9.3,6.8-11.8c18.6-11.4,39.3-15.7,58.5-15.7,37.5,0,68.9,20,68.9,68.2v103.2h.7Z"/>
  <path class="st0" d="M1499.5,258.1c0-33.2,23.2-54.6,52.1-54.6s18.9,1.1,28.6,3.2c6.4,1.1,10.7,7.1,10.7,13.2s-6.1,12.5-13.6,12.5-4.3-.7-6.8-1.1c-6.4-1.1-12.1-2.1-18.9-2.1-13.9,0-25,10.4-25,27.8v128.9c0,7.5-6.1,13.6-13.6,13.6s-13.6-6.1-13.6-13.6v-127.8h0Z"/>
  <path class="st0" d="M1643.8,126.7c-12.1,0-21.4,9.3-21.4,21.4v230.2c0,12.1,9.3,21.4,21.4,21.4s21.1-9.6,21.1-21.4v-230.2c0-12.1-9.3-21.4-21.1-21.4"/>
  <path class="st0" d="M1736.6,203.5c-11.8,0-21.4,9.6-21.4,21.4v153.1c0,11.8,9.6,21.4,21.4,21.4s21.1-9.3,21.1-21.4v-153.1c0-12.1-9.3-21.4-21.1-21.4"/>
  <path class="st0" d="M1736.6,171c13.2,0,23.9-10.7,23.9-23.9s-10.7-23.9-23.9-23.9-23.9,10.7-23.9,23.9,10.7,23.9,23.9,23.9"/>
  <path class="st0" d="M1946.5,224.6c-14.3-14.6-34.3-22.5-58.2-22.5s-42.5,3.6-62.1,10.4c-11.1,3.6-17.8,13.6-17.8,25v140.6c0,12.1,9.3,21.4,21.4,21.4s21.1-9.6,21.1-21.4v-131.7c13.2-3.2,25.7-5,37.8-5,24.3,0,38.2,13.6,38.2,37.8v98.9c0,12.1,9.3,21.4,21.1,21.4s21.4-9.3,21.4-21.4v-96c-.4-22.8-7.9-42.8-22.8-57.5"/>
  <path class="st0" d="M2086,241.3c25.3,0,37.8,14.6,38.2,46h-75.7c0-31.4,12.5-46,37.5-46M2144.2,224.6c-14.3-14.6-34.3-22.5-58.2-22.5s-43.5,7.9-58.2,22.5c-14.3,14.3-22.1,34.3-22.1,57.5v38.9c0,23.2,7.5,42.1,22.1,56.8,14.6,14.6,34.6,22.5,58.2,22.5s41.8-4.6,60.7-13.6c6.8-3.6,10.7-10,10.7-18.6s-9.3-19.3-20-19.3-5.4.7-8.6,2.1c-15.7,7.1-29.3,10.4-42.5,10.4s-23.2-4.3-30-13.2c-5.4-7.5-7.5-14.6-7.9-22.8h91.7c14.6,0,26.4-11.8,26.4-26.4v-16.8c0-23.6-7.9-42.8-22.5-57.5"/>
</svg>