<?xml version="1.0" encoding="UTF-8"?>
<svg id="Livello_1" xmlns="http://www.w3.org/2000/svg" version="1.1" viewBox="0 0 1239.7 500">
  <!-- Generator: Adobe Illustrator 29.3.1, SVG Export Plug-In . SVG Version: 2.1.0 Build 151)  -->
  <defs>
    <style>
      .st0 {
        fill: #d62222;
      }

      .st1 {
        fill: #fff;
      }
    </style>
  </defs>
  <rect class="st1" width="1239.7" height="500"/>
  <path class="st0" d="M0,250v250h1239.7V0H0v250ZM444.6,136.9c.1,36.1-.3,63.9-1,64.6s-34.3,1.5-74.7,1.9l-73.6.8-6.2,3.6c-7.3,4.1-37.3,33.7-49,48.2-23.6,29.2-26,34.4-18.9,39.9,3.4,2.9,4.8,2.9,45.7,2.6l42.1-.4.7-26.2.7-26.2h132.2l.4,92.8c.1,67.4-.1,93.4-1.2,94.6-1.4,1.7-26.4,1.9-149.9,1.9s-157.7,0-179.2-6.6c-32.2-9.9-59.5-36.5-70.7-69.1-5.4-15.6-5.5-55.6-.1-65.8,1.1-2.1,1.9-4.5,1.9-5.5s.6-1.7,1.2-1.7,1.9-1.8,2.9-4c.8-2.2,2.6-5.1,3.9-6.6,1.2-1.4,5.9-6.9,10.3-12.1,11.4-13.6,12-14.3,18.2-22,55.6-69.1,95.2-110.9,128.7-135.8,8-6.1,15.3-11.6,16.3-12.3.8-.7,4-2.6,6.9-4.1,2.9-1.7,6.2-3.4,7.3-4.1,3.2-1.9,11-5,17.9-7,14.7-4.3,32.4-5,109.5-4.8h77.1c0,.1.4,63.4.4,63.4ZM771.9,75.2c1.1,2.8,1.1,122.3,0,125.1-.7,1.9-8.1,2.2-68.7,2.2s-68-.3-69.6-2.1c-1.4-1.7-1.5-14.7-.8-62.9.6-33.3,1.4-61.6,1.8-62.5.6-1.7,12.3-1.9,68.6-1.9s68,.3,68.7,2.2h0ZM997.1,74.9c1.1,1.2,1.4,19.3,1.2,64.3l-.4,62.5-66.8.4c-36.8.1-68.2,0-69.8-.4l-3.2-.7v-63.2c0-49.3.4-63.4,1.8-63.9.8-.4,31.8-.8,68.6-.8,55.1-.1,67.4.1,68.6,1.8h0ZM1158.1,74.1c1.4,1,1.7,14.7,1.4,64.5l-.4,63.2-68,.4c-49,.1-68.6-.1-69.8-1.2-2.6-2.2-2.9-123.7-.3-126.3,1.9-1.9,134.2-2.3,137.2-.6h0ZM608,75.2c1.9.7,2.2,7.6,2.2,62.4s-.4,62-1.7,63.2c-2.3,2.3-133.5,2.3-135.8,0s-2.3-122.5,0-124.8c1.2-1.2,18-1.7,67.4-1.7s66.7.4,67.9.8h0ZM610.2,326.3c0,83.5-.4,106.1-1.7,106.5-1,.4-31.7.6-68.3.6-57.4-.1-66.7-.4-67.8-2.2-1.5-2.3-1.9-208.4-.4-209.8.4-.6,31.8-1,69.6-1h68.6v105.9ZM771.5,232.8c.7,10.5,1.4,12.9,7,23.7,3.6,6.6,7,12.8,7.9,13.8s4.3,5.5,7.9,10.1c10.3,13.4,21.9,22.7,25.3,20.7,1.5-1,17.9-22.2,17.9-23.1s2.2-4,5-8c2.8-4.1,5.9-9.4,6.9-11.6,1.1-2.3,2.5-5.1,3.2-6.2.6-1.1,1.9-3.6,2.9-5.5,1.1-1.9,2.2-8.4,2.8-14.5l.7-11,70-.4,69.8-.3v18.9c-.1,17.8-2.9,35.4-5.9,38.4-.6.6-1,1.9-1,3,0,5.4-15.8,33.7-32.5,57.7-4.5,6.6-10.7,16.1-13.6,21.1s-5.8,9.2-6.2,9.6c-.7.6-7.7,11.7-18.3,29.6-1,1.5-1.9,3-2.5,3.4-.4.4-2.2,3.2-4,6.2-1.9,3-4.4,6.7-5.6,8.3-1.4,1.5-5,6.1-8,10.1-9.2,11.7-20.5,19.8-36,26-7.9,3.2-34.2,7.3-46.8,7.3s-38-3.9-46.8-6.9c-7.6-2.5-20.8-9.5-26.9-14.2-5.9-4.5-26.9-25.9-26.9-27.4s-1-1.8-2.1-3c-1.2-1.1-6.2-8.1-11-15.6-5-7.4-9.8-14.6-10.6-16-1-1.4-3-4.5-4.5-7.2-1.5-2.5-7.3-12.3-12.9-21.5-5.6-9.2-10.9-18.2-11.7-19.7-.8-1.7-3.2-5.4-5.1-8.4-7.3-11.4-20.5-36.4-20.5-38.7s-.8-2.8-1.9-5.1c-1-2.5-2.6-7.7-3.4-11.7-1.7-8-2.1-41.9-.6-43.4.4-.6,31.7-.8,69.1-.7l68.3.4.8,11.7ZM1159.8,325.6c0,72.9-.4,105.6-1.5,106.2-.7.6-31.5,1-68.2,1-50.1-.1-67.4-.6-68.9-1.8-1.8-1.4-1.9-16-1.9-104.1.1-56.5.6-103.4,1-104.5.6-1.7,11.6-1.9,70.1-1.9h69.4v105.2Z"/>
</svg>