<?xml version="1.0" encoding="UTF-8"?>
<svg id="Livello_1" xmlns="http://www.w3.org/2000/svg" version="1.1" viewBox="0 0 1670.3 500">
  <!-- Generator: Adobe Illustrator 29.3.1, SVG Export Plug-In . SVG Version: 2.1.0 Build 151)  -->
  <path d="M330.2,51.6c-8,2.6-19.5,12.8-23.7,21.5-4.5,8.3-4.2,27.5.6,35.5,6.4,10.9,14.7,14.7,32.3,14.7s25.9-3.8,35.2-16c4.5-6.1,5.1-8.3,5.1-22.7v-16l-8-7.4c-11.8-10.9-25.6-13.8-41.6-9h0v-.6ZM761.5,173c-27.5,4.2-50.9,14.7-72.1,33-18.9,16-32.7,33-42,50.9-16.7,32-21.1,84.5-10.2,117.8,11.8,36.2,40.7,62.8,78.8,71.7,32.3,8,81.7,1.9,107.9-12.8,10.6-6.1,20.5-11.8,21.8-13.1.6-.6,5.1-4.5,10.2-8.3,8.3-6.7,25.3-26.6,31.4-36.8,6.4-10.6,14.1-28.5,17.9-42.3,6.4-21.8,6.4-63.1.3-82-5.1-16.3-8.3-23.1-17.9-35.9-11.2-15.4-20.2-22.4-37.5-31.1-25-12.5-53.8-16-89-10.6h0l.3-.6ZM805.1,229.3c10.6,4.8,16.7,9.9,22.7,19.9,16,25.3,13.4,71.1-6.1,103.8-9,14.7-22.4,27.9-36.2,34.6-10.2,5.1-13.8,5.8-28.5,5.8s-27.2-3.2-36.5-13.4c-11.8-13.4-20.2-42.6-17.6-60.5,7-44.8,28.2-76.5,59.6-89.3,12.5-5.1,32.3-5.4,42.6-.6h0ZM1097.1,172.3c-32.3,1.3-52.5,5.1-93.8,18.3-9.3,2.9-17.9,6.7-19.5,8.3s-3.5,10.2-4.8,19.5c-1.3,9.3-2.9,19.9-3.8,24-2.6,10.9-13.1,58.3-14.7,66.3-.6,3.5-1.9,9.3-2.9,12.5s-3.2,12.8-4.8,21.1c-1.6,8.3-4.5,20.2-5.8,25.9-1.3,5.8-4.2,17-5.8,25s-4.5,19.9-6.1,26.3-2.6,14.7-2.2,18.3l.6,6.4,26.9.6c14.7,0,28.5,0,30.7-.3,4.5-1.3,5.4-5.1,27.9-106,3.2-14.7,7-32,8.3-38.4,1.6-6.4,4.2-18.6,6.1-26.9,5.1-23.3,11.1-36,17.9-38.1,27.5-8.6,46.4-9.3,60.8-2.2,12.8,6.4,17.9,24.3,12.8,44.5-1,4.2-3.2,13.8-5.1,21.8s-4.5,18.9-6.1,24.3c-1.6,5.4-2.6,11.2-2.6,13.4s-2.6,14.4-5.8,27.5c-3.2,13.1-7,30.4-9,38.4-1.6,8-3.8,17.9-5.1,22.1s-2.2,10.2-2.2,13.4v5.8l30.1.6c34.6.6,34.3.6,37.8-17.9,1.3-5.1,3.8-17.6,6.1-27.5,2.2-9.9,4.8-21.8,5.4-25.9s3.5-16,5.8-25.9c2.2-9.9,4.8-21.8,5.4-25.9,1-4.2,2.6-11.2,3.5-15.4,2.6-9.3,7.4-32.3,10.2-48,3.2-17.3,3.2-17.6,11.8-20.8,37.1-14.1,65.3-10.9,75.3,8.3,3.8,7.4,3.2,25.9-1.6,45.5-1.6,6.4-3.8,16.7-5.1,23.1-1.3,6.4-3.2,15.7-4.5,21.1-1.3,5.1-3.8,16.7-5.8,25-1.6,8.3-4.5,20.2-5.8,25.9s-4.2,17.6-5.8,25.9-4.2,18.6-4.8,22.4c-1,4.5-.6,7.7.6,9s12.8,2.2,30.1,2.2c25,0,28.5-.3,31.4-3.5,1.9-1.9,3.2-5.1,3.2-7s1.3-8.3,2.6-14.1c6.4-25.3,7.4-30.4,9-37.8.6-4.2,3.5-17.6,6.4-29.8,2.9-12.2,5.4-25.3,6.1-28.8.6-3.5,1.9-9.3,2.9-12.5,1-3.2,3.2-12.8,5.1-21.1,1.6-8.3,4.5-19.5,6.1-24.7,1.3-5.1,2.6-17.9,2.6-28.5,0-17.3-.6-20.2-5.8-31.4-6.4-13.1-16-22.4-30.7-28.8-7.4-3.2-13.1-3.5-40.3-3.5s-42.3,1.3-81,16.3l-10.9,4.2-9.3-6.4c-17.6-12.8-38.7-16.7-78.8-14.7h0l.6-1.3ZM1505.4,173c-11.2,1.3-21.5,3.2-22.4,3.8-1.3.6-6.1,1.9-11.2,2.9-9.9,1.6-17.9,4.2-30.4,9.9-7.7,3.5-8,3.8-7,9.9.6,3.5,2.2,8.6,3.5,11.5,1.6,2.9,2.6,6.7,2.6,9s.6,4.2,1.6,5.1c1,1.3,2.6,5.1,4.2,9.3,2.6,8.3,1.3,8,22.1,2.2,38.4-10.9,67.2-13.1,84.5-7,7.4,2.6,10.2,5.1,13.1,10.9,2.6,4.9,2.6,9.7,0,14.4-5.8,10.9-20.8,17.6-60.5,26.3-45.8,9.9-71.4,17.6-84.5,24.3-10.9,5.4-24.3,17-30.4,25.3-13.4,18.9-17.6,52.5-8.6,72.4,15.1,33.6,52.8,48,120.7,45.2,17-.6,37.5-1.9,45.2-2.9,17.3-1.9,42.3-7.7,45.5-10.2,2.6-2.2,6.1-13.8,10.9-37.1,1.6-8.3,4.5-20.8,6.1-27.9s4.2-18.9,5.8-26.9c1.6-8,4.2-20.2,5.8-27.5,1.6-7,4.2-19.2,5.8-26.9,1.6-7.4,4.5-19.9,6.1-26.9,3.5-15.7,2.6-28.5-3.2-44.2-9.6-25.6-32.3-40.3-69.8-45.5-18.6-2.6-29.1-2.6-55.7.6h.6ZM1554.8,320.3c.6,1,0,7-1.6,12.8-6.1,23.7-9,37.5-9,43.9s-1.6,8.3-4.5,11.2c-4.2,4.2-7,4.8-25.3,6.1-38.7,2.6-57-1.6-63.7-15.7-3.8-8-3.5-13.8.6-20.8,8.3-13.8,16-17,72.4-30.7,7.4-1.9,15.7-4.5,18.3-5.8,5.8-3.2,10.9-3.2,12.5-.6h0l.3-.3ZM222.9,177.8c-7,.6-23.7,1.6-37.8,1.6-24.3,0-49.3,4.2-66.3,9.9-22.7,8-38.7,28.5-44.5,55.7-1.3,5.8-3.2,17-4.8,25-1.6,8-4.2,19.9-5.4,26.9-1.3,7-4.2,19.9-5.8,28.8s-4.5,21.8-6.1,28.8c-1.3,7-4.2,18.9-5.4,26.9-1.6,8-4.2,19.5-5.8,25.9-7.4,32.3-7.4,33.9-4.5,35.9,4.2,2.6,26.6,2.2,39.4-1.3,19.5-5.1,27.5-16.3,34.6-49,1.6-8,4.2-20.2,5.8-27.5,1.6-7,4.2-19.2,5.8-26.9,7-33,9.3-43.6,11.8-55.1,1.3-7,3.2-15.1,3.5-17.9,2.2-9.9,10.2-15.4,29.1-18.9,9.3-1.9,19.5-3.2,22.7-3.2,9.3,0,25-9,34.9-20.5,9.9-10.9,20.5-30.4,22.7-40.7q1.3-6.1-5.1-5.8c-3.5,0-12.2.6-18.9,1.6h0v-.3ZM309.7,179.1c-15.7,4.8-24,18.6-31.4,53.8-1.9,8.3-4.5,20.5-6.1,26.9s-4.2,18.9-5.8,27.9c-2.9,15.1-5.1,24.7-11.5,54.8-2.2,10.9-3.8,17.6-11.5,54.8-1.6,8-4.5,19.9-6.1,26.3s-2.6,14.1-2.2,16.3c.6,4.2,1.6,4.5,15.1,5.1,9.3.3,18.9-.6,26.6-2.6,19.9-5.4,28.2-17.9,35.9-56.7,1.9-9,4.5-21.5,6.1-27.9,1.3-6.4,4.2-18.9,5.8-27.9,1.6-9,4.2-19.9,5.1-24s3.2-13.8,4.8-21.1c4.2-21.5,5.8-29.5,10.2-49,2.2-9.9,4.8-23.1,6.1-28.8s2.9-13.4,3.8-16.7c1.3-3.5,1.6-8,.6-10.2-1.3-3.5-2.6-3.8-18.9-3.5-9.9,0-21.5,1.3-26.3,2.9h0l-.3-.3ZM432.7,178.7c-3.5,1.3-8.6,3.2-11.2,4.5-8.3,4.8-19.5,28.2-19.5,41.3v7h58.3c33.3,0,59.2.6,60.8,1.9,2.2,1.3-13.1,17.9-74.3,79.1-88.7,89.3-90.9,91.6-90.9,115.3s.6,15.1,3.2,16c1.6.6,50,1.3,107.6,1.3s104.7-.6,106.3-2.6c2.9-3.5,10.2-37.5,10.9-48.4v-5.8l-63.7-.6c-35.2,0-64-1.3-64-1.9s35.9-37.1,79.4-81l79.4-79.7,3.5-15.4c1.6-8.3,3.5-19.2,3.5-24v-8.6c.3,0-90.9-.3-90.9-.3-64.7,0-93.2.3-98,2.2h0l-.3-.3Z"/>
</svg>