<?xml version="1.0" encoding="UTF-8"?>
<svg id="Livello_1" xmlns="http://www.w3.org/2000/svg" version="1.1" viewBox="0 0 500 500">
  <!-- Generator: Adobe Illustrator 29.3.1, SVG Export Plug-In . SVG Version: 2.1.0 Build 151)  -->
  <defs>
    <style>
      .st0 {
        fill: #34358e;
      }

      .st1 {
        fill: #fefefe;
      }

      .st2 {
        fill: #cc252c;
      }
    </style>
  </defs>
  <path class="st1" d="M392.7,68.7c7.8-44.7-33.6-80.8-76.5-62.2-3.2,1.4-11.3,7.3-12.8,7.5-5.8,1.1-22.4.8-29.6,1-18.6.5-39.2-1.5-57.5,0-29,2.3-49,26.8-55.1,53.6-28,1.6-55.3-3.9-82.5,4.1C-8.7,98.2-21.6,222.8,57.9,266.9c2,1.1,13.6,6,13.6,6.8-17.3,15.8-35.3,29.8-48.9,49.2-57.2,81.8.9,183.2,100.2,175.1,20.6-1.7,42.2-11.3,57.5-24.9,26.4-23.2,52.5-53,77.3-78.3,37-37.7,74-75.4,110.2-113.8,2.7-1.2,14,2,18,2.3,92.7,6.9,142.3-90.4,97.5-166.9-18.8-32-53.5-49.5-90.5-47.9Z"/>
  <g>
    <path class="st0" d="M392.7,68.7c37-1.6,71.8,15.8,90.5,47.9,44.9,76.5-4.8,173.8-97.5,166.9-4.1-.3-15.3-3.5-18-2.3-36.3,38.4-73.2,76.2-110.2,113.8-24.8,25.3-50.9,55-77.3,78.3s-37,23.2-57.5,24.9c-99.3,8-157.4-93.4-100.2-175.1,13.6-19.4,31.6-33.4,48.9-49.2,0-.8-11.6-5.7-13.6-6.8C-21.6,222.8-8.7,98.2,78.7,72.6c27.2-8,54.5-2.5,82.5-4.1,6.1-26.9,26.1-51.4,55.1-53.6,18.2-1.4,38.9.6,57.5,0,7.2-.2,23.8.1,29.6-1s9.6-6.1,12.8-7.5c42.9-18.6,84.3,17.5,76.5,62.2ZM389,72.4c-.2-5.6,1.2-10.6,1-16.2-1.9-46-50.2-65.4-85.7-38.4-28.7,1.5-60.5-1.5-88.9.9s-46.4,28-51.5,53.6c-29.8,1.5-58.3-4.6-87.4,4.7C-3.4,102.7-16,218.5,55.8,261.6s14.7,6.9,22.1,10.3c.3,1.2-2,2.9-2.8,3.7-24.9,23.9-49.7,39.5-63.4,73.6-35,86.9,46.2,169.2,133.7,140.2,32.9-10.9,67.2-53.8,91.7-78.7,43.5-44.1,86.6-88.7,129.7-133.3,2.9-1.3,13.2,1.8,17.2,2.2,85.1,8.8,136.1-77.1,101.4-151.4-17.9-38.3-54.3-58.6-96.4-55.8Z"/>
    <path class="st1" d="M389,72.4c42.2-2.7,78.6,17.5,96.4,55.8,34.7,74.3-16.3,160.2-101.4,151.4-4-.4-14.4-3.5-17.2-2.2-43.1,44.6-86.2,89.2-129.7,133.3-24.5,24.8-58.8,67.8-91.7,78.7-87.5,29-168.7-53.3-133.7-140.2,13.7-34.1,38.6-49.7,63.4-73.6.8-.8,3.1-2.5,2.8-3.7-7.4-3.4-15.1-6.1-22.1-10.3C-16,218.5-3.4,102.7,76.5,77c29-9.4,57.6-3.3,87.4-4.7,5.1-25.6,23.6-51.2,51.5-53.6s60.2.6,88.9-.9c35.4-27,83.8-7.6,85.7,38.4s-1.1,10.7-1,16.2ZM327.7,29.1c-3.9.5-19.4,6.4-18.2,11.1l47.5,46.9c22-25.5,6.8-62.9-29.3-58ZM345.5,89l-1.4-2.8-45.3-45.4-3.7-.9c-22.7,1.4-47.1-1.6-69.5,0s-43.1,22.9-44.9,49.1h164.8ZM102.5,257.5c6.3.6,13.5-.4,19.9,0l-74.1,74.5c-69,85.5,39.5,189.4,124.1,113.9l185.2-191.7c7.8,2.1,16,5.4,24.5,6.1,97.3,7.7,127-122.9,42.7-159.4-24.5-10.6-49-5.8-74.7-8.2l64.7,66.3c.5,2.6-12.2,9-14.8,10-16.9,6.6-32,3.4-45.8-7.9-22.9-18.8-43-46.2-65.2-66.2-1.5-1.9-10.9-1.8-12.2-.9s-2.7,12.5-3.9,15.6c-3.4,9-10.1,18.2-18.4,23.3-2,1.2-12.7,6.1-14.3,6.1H102l44.4-47.2c-40.9-4.9-82.1,1.3-104.8,39.2-30.4,50.7,1.4,120.8,60.8,126.5Z"/>
    <path class="st2" d="M345.5,89h-164.8c1.7-26.2,17.5-47.1,44.9-49.1s46.9,1.4,69.5,0l3.7.9,45.3,45.4,1.4,2.8Z"/>
    <path class="st2" d="M327.7,29.1c36.1-4.9,51.3,32.5,29.3,58l-47.5-46.9c-1.2-4.7,14.3-10.6,18.2-11.1Z"/>
    <g>
      <path class="st0" d="M102.5,257.5c-59.4-5.7-91.2-75.8-60.8-126.5,22.7-37.8,63.9-44.1,104.8-39.2l-44.4,47.2h138.4c1.5,0,12.3-4.8,14.3-6.1,8.2-5.1,15-14.3,18.4-23.3s3.2-15.1,3.9-15.6c1.3-.9,10.7-1,12.2.9,22.3,20,42.3,47.4,65.2,66.2,13.8,11.3,28.9,14.5,45.8,7.9,2.6-1,15.2-7.4,14.8-10l-64.7-66.3c25.7,2.4,50.2-2.4,74.7,8.2,84.3,36.5,54.6,167.1-42.7,159.4-8.5-.7-16.7-4-24.5-6.1l-185.2,191.7c-84.6,75.5-193.1-28.4-124.1-113.9l74.1-74.5c-6.4-.4-13.6.6-19.9,0ZM268.7,212.1c.9,12.4-15.8,13.3-19.5,2.4-3.3-9.9.9-22.9,13.3-20.7s8.1,5.5,10.8,4c8.9-4.7-5-12.5-10.9-13.2-19.8-2.4-28.9,19.8-20.8,35.6s27.4,14.7,34.6.9c1.7-3.3,4.8-15.6.1-17.2s-14.2-.4-15.5,0c-2.3.8-1.9,5.3-.7,6.9s5.9,1.1,8.4,1.3ZM337.9,184.6c-22.9,3-23,42.2-1.9,45.8,34.1,5.9,32.8-49.8,1.9-45.8ZM98.3,228.3v-33.8c0-.3,5.6.2,6.9,0,3.7-.7,5.7-5.5,3-8.1s-23-1.7-26.1-1.1-3.2,1.8-3.3,4.1c-.3,7.7,9.3,4.2,10.2,5.1s-1.5,27.9.7,33.1,7.7,3.9,8.6.7ZM140.5,221.4c-4.3-1.2-14,.9-19,0v-9.3h15.3c4.4,0,4.4-9.3,0-9.3h-15.3v-8.3h17.1c3,0,6.5-7.5,1.5-8.9s-19.1-.9-22.8-.5-4.7,2.6-5.1,6c-.8,7.2-.8,26.2,0,33.4.4,3.4,1.1,4.8,4.6,5.6s21.7.9,24.4-.5,2.1-7.6-.7-8.3ZM146.5,187.6v40.7c0,.5,2.6,2,3.5,2.2,8.3,1.6,4.7-12.8,5.8-17.4,15.5-1.8,10,5.6,13,14.3s8.3,2.7,8.3,1v-13.9c0-1-3-4.5-4.6-4.2,7.1-7,5-21.8-5.7-24.3s-19.2-2-20.2,1.7ZM190,227.4c.9-4.7,0-14.1,0-19.4s-2.6-4.8,0-5.1c2.8,7,4.1,18.2,7.3,24.6,2,3.9,6.7,4.3,9.2.7s4.8-16.9,7.5-22.6c1.6-.2.9,2.1.9,3.2.2,5.1-2.3,16.2-.5,19.9,1.6,3.2,7,2.1,8.3-.9s1-32.5.5-36.6-3-6.9-7.9-6-10,22.5-13,27.8c-4.1-4.6-7.6-25.1-12.5-27.3-4.3-2-8.4,0-9.2,4.7s-.8,28.3,0,35.1,8.5,5.8,9.3,1.8ZM228.2,229.5c2.6,2.6,7.4.6,8.1-3,1-5.5.7-30,0-36.1-.8-7.3-8.4-6.5-9.2-1.8.8,6.2-1.7,38.1,1.1,40.9ZM290.9,227.4c1.3-6.9-.9-17.2,0-24.5l19.5,26.3c5.4,3.7,7.7-.2,8.3-5.5.7-6.4.9-27.2,0-33.3-1.2-7.5-9.2-5.2-9.2-2.8v24.5c-2.2.6-1.6-.5-2.1-1.2-6.4-7.4-11.4-17.2-17.7-24.8-4.7-2.3-7.4-.9-8,4.2-.7,6.2-1,30.5,0,36.1s8.4,5.4,9.2.9ZM391.8,212.1c-6.5-4.3-14.4-22.7-19.8-26-2.3-1.4-7-.7-7,1.4v40.7c0,2.6,9.3,3.8,9.3-2.8v-21.8c4.7,3.6,17.3,26.5,21.8,26.9s4.8-2.6,5.1-5.1c.8-6.5.9-29.8-.1-36.1s-9.2-3.8-9.2-1.9v24.5ZM411.9,229.5c2.8-2.8.3-34.8,1.1-40.9-.9-4.7-8.4-5.5-9.2,1.8-.7,6.1-1,30.6,0,36.1s5.5,5.7,8.1,3Z"/>
      <g>
        <path class="st1" d="M190,227.4c-.7,3.9-8.5,5.5-9.3-1.8s-1-28.7,0-35.1,4.9-6.6,9.2-4.7c4.9,2.2,8.4,22.7,12.5,27.3,3-5.3,6.8-26.6,13-27.8s7.3,1.3,7.9,6,.4,34.4-.5,36.6c-1.4,3.1-6.8,4.1-8.3.9-1.8-3.7.6-14.8.5-19.9s.7-3.4-.9-3.2c-2.7,5.7-4.3,17.9-7.5,22.6s-7.2,3.2-9.2-.7c-3.3-6.4-4.6-17.6-7.3-24.6-2.6.3,0,4.5,0,5.1,0,5.3.9,14.8,0,19.4ZM215.4,203.8v.9c.6-.3.6-.6,0-.9Z"/>
        <path class="st1" d="M290.9,227.4c-.8,4.4-8.3,4.3-9.2-.9s-.7-29.9,0-36.1c.6-5.2,3.3-6.5,8-4.2,6.3,7.6,11.4,17.4,17.7,24.8.6.7,0,1.7,2.1,1.2v-24.5c0-2.4,8-4.7,9.2,2.8,1,6,.8,26.9,0,33.3-.6,5.3-2.9,9.2-8.3,5.5l-19.5-26.3c-.9,7.3,1.3,17.6,0,24.5Z"/>
        <path class="st1" d="M391.8,212.1v-24.5c0-1.9,8.1-5.3,9.2,1.9s.9,29.6.1,36.1-2.2,5.4-5.1,5.1c-4.5-.4-17.1-23.3-21.8-26.9v21.8c0,6.6-9.3,5.4-9.3,2.8v-40.7c0-2.2,4.7-2.8,7-1.4,5.5,3.2,13.4,21.7,19.8,26Z"/>
        <path class="st1" d="M268.7,212.1c-2.5-.2-6.7.9-8.4-1.3s-1.6-6.1.7-6.9,14.2-.4,15.5,0c4.7,1.6,1.6,13.9-.1,17.2-7.2,13.7-27.5,12.7-34.6-.9s1-38,20.8-35.6,19.8,8.5,10.9,13.2c-2.8,1.5-7.4-3.4-10.8-4-12.3-2.3-16.6,10.7-13.3,20.7,3.7,11,20.4,10,19.5-2.4Z"/>
        <path class="st1" d="M337.9,184.6c30.9-4,32.3,51.7-1.9,45.8-21.2-3.6-21.1-42.9,1.9-45.8ZM337.8,193.8c-11.8,2.7-10.8,29,3.4,28.4,15.3-.6,14.6-32.6-3.4-28.4Z"/>
        <path class="st1" d="M140.5,221.4c2.8.8,3.1,7,.7,8.3s-20.9,1.4-24.4.5-4.2-2.2-4.6-5.6c-.8-7.2-.8-26.2,0-33.4s1.5-5.6,5.1-6,19.6-.5,22.8.5c5,1.4,1.6,8.9-1.5,8.9h-17.1v8.3h15.3c4.4,0,4.4,9.3,0,9.3h-15.3v9.3c5,.9,14.6-1.2,19,0Z"/>
        <path class="st1" d="M146.5,187.6c1-3.7,16.8-2.5,20.2-1.7,10.7,2.6,12.8,17.4,5.7,24.3,1.6-.3,4.6,3.2,4.6,4.2v13.9c0,1.7-6.2,4.8-8.3-1-3-8.7,2.5-16.1-13-14.3-1.1,4.6,2.5,19.1-5.8,17.4s-3.5-1.7-3.5-2.2v-40.7ZM156.3,193.8c-2.4.8-2,10.5-.6,11.5,17.8,4.6,15.3-16.3.6-11.5Z"/>
        <path class="st1" d="M98.3,228.3c-.9,3.2-6.8,3.4-8.6-.7s.5-31.9-.7-33.1-10.6,2.6-10.2-5.1,1-3.7,3.3-4.1,24.6-.4,26.1,1.1c2.6,2.6.6,7.4-3,8.1s-6.9-.3-6.9,0v33.8Z"/>
        <path class="st1" d="M228.2,229.5c-2.8-2.8-.3-34.8-1.1-40.9.9-4.7,8.4-5.5,9.2,1.8.7,6.1,1,30.6,0,36.1s-5.5,5.7-8.1,3Z"/>
        <path class="st1" d="M411.9,229.5c-2.6,2.6-7.4.6-8.1-3-1-5.5-.7-30,0-36.1.8-7.3,8.4-6.5,9.2-1.8-.8,6.2,1.7,38.1-1.1,40.9Z"/>
        <path class="st0" d="M215.4,203.8c.6.3.6.6,0,.9v-.9Z"/>
        <path class="st0" d="M337.8,193.8c18-4.1,18.7,27.9,3.4,28.4-14.2.5-15.2-25.7-3.4-28.4Z"/>
        <path class="st0" d="M156.3,193.8c14.7-4.8,17.2,16.1-.6,11.5-1.4-.9-1.7-10.7.6-11.5Z"/>
      </g>
    </g>
  </g>
</svg>